<svg width="358" height="614" viewBox="0 0 358 614" fill="none" xmlns="http://www.w3.org/2000/svg">
<g filter="url(#filter0_ii_257_13)">
<path d="M92.1928 94.2778H160.54C169.16 94.2778 178.572 94.7176 188.776 95.5972C199.156 96.3009 209.447 98.1481 219.651 101.139C230.031 103.954 239.971 108.352 249.471 114.333C259.147 120.315 267.679 128.495 275.068 138.875C282.457 149.079 288.35 161.921 292.748 177.403C297.322 192.884 299.609 211.708 299.609 233.875V249.708C299.609 273.81 297.498 294.481 293.276 311.722C289.23 328.787 283.776 343.213 276.915 355C270.054 366.611 262.049 375.935 252.901 382.972C243.929 390.009 234.517 395.375 224.665 399.069C214.989 402.588 205.137 404.963 195.109 406.194C185.258 407.25 175.934 407.778 167.137 407.778H160.54V545H92.1928V94.2778ZM163.971 357.639C176.285 357.639 186.665 355.88 195.109 352.361C203.554 348.667 210.239 343.037 215.165 335.472C220.267 327.731 223.873 317.88 225.984 305.917C228.272 293.778 229.415 279.264 229.415 262.375V221.736C229.415 208.366 228.447 196.843 226.512 187.167C224.577 177.315 221.059 169.222 215.957 162.889C211.031 156.556 204.346 151.894 195.901 148.903C187.457 145.736 176.813 144.153 163.971 144.153H160.54V357.639H163.971Z" fill="#FF3C5B"/>
<path d="M92.165 95C181.982 -28.75 159.22 95 159.22 95H92.165Z" fill="#FF3C5B"/>
<path d="M146.665 100C227.5 -10.25 207.464 100 207.464 100H146.665Z" fill="#FF3C5B"/>
<circle cx="92.665" cy="118" r="27" fill="#FF3C5B"/>
<ellipse cx="126.665" cy="538" rx="35" ry="33" fill="#FF3C5B"/>
<circle cx="29.165" cy="466.5" r="24.5" fill="#FF3C5B"/>
<path d="M161.665 357V407C161.665 407 98.6651 382.614 65.1651 407C29.1651 433.206 49.6649 453 49.6649 453L15.6648 486.5C-6.83484 472 -9.33488 404.563 36.6651 371.5C82.6651 338.437 131.165 357 161.665 357Z" fill="#FF3C5B"/>
<path d="M125 89.5C123 86.5 136 70 148 60C160 50 150 86 148 89.5C146 93 127 92.5 125 89.5Z" fill="#FF97A8"/>
<path d="M174.181 92.5384C172.418 89.8946 183.875 75.3537 194.45 66.541C205.025 57.7283 196.212 89.454 194.45 92.5384C192.687 95.6229 175.943 95.1823 174.181 92.5384Z" fill="#FF97A8"/>
<path d="M71 369C68.8596 364.48 66 362 61 358.5L57 360L51.5 362.5C51.5 362.5 60 365 65.5 371C71 377 72.5 384 72.5 384C72.5 378 73.5417 374.367 71 369Z" fill="#FF97A8"/>
<path d="M57.5513 374.074C54.6877 369.974 51.4549 368.005 45.9417 365.387L42.2475 367.533L37.2409 370.914C37.2409 370.914 46.0386 371.963 52.4613 376.963C58.8841 381.963 61.5294 388.615 61.5294 388.615C60.5297 382.699 60.9516 378.943 57.5513 374.074Z" fill="#FF97A8"/>
<path d="M45.0733 381.512C41.478 378.035 37.9281 376.721 32.0158 375.207L28.8004 378.02L24.5335 382.297C24.5335 382.297 33.3693 381.643 40.6302 385.321C47.8911 388.999 51.7606 395.022 51.7606 395.022C49.6472 389.407 49.3426 385.64 45.0733 381.512Z" fill="#FF97A8"/>
</g>
<defs>
<filter id="filter0_ii_257_13" x="0" y="30" width="302.609" height="546" filterUnits="userSpaceOnUse" color-interpolation-filters="sRGB">
<feFlood flood-opacity="0" result="BackgroundImageFix"/>
<feBlend mode="normal" in="SourceGraphic" in2="BackgroundImageFix" result="shape"/>
<feColorMatrix in="SourceAlpha" type="matrix" values="0 0 0 0 0 0 0 0 0 0 0 0 0 0 0 0 0 0 127 0" result="hardAlpha"/>
<feOffset dy="-10"/>
<feGaussianBlur stdDeviation="5"/>
<feComposite in2="hardAlpha" operator="arithmetic" k2="-1" k3="1"/>
<feColorMatrix type="matrix" values="0 0 0 0 0.645833 0 0 0 0 0.446701 0 0 0 0 0.446701 0 0 0 0.41 0"/>
<feBlend mode="normal" in2="shape" result="effect1_innerShadow_257_13"/>
<feColorMatrix in="SourceAlpha" type="matrix" values="0 0 0 0 0 0 0 0 0 0 0 0 0 0 0 0 0 0 127 0" result="hardAlpha"/>
<feOffset dx="3" dy="5"/>
<feGaussianBlur stdDeviation="3"/>
<feComposite in2="hardAlpha" operator="arithmetic" k2="-1" k3="1"/>
<feColorMatrix type="matrix" values="0 0 0 0 1 0 0 0 0 0.591667 0 0 0 0 0.659042 0 0 0 0.68 0"/>
<feBlend mode="normal" in2="effect1_innerShadow_257_13" result="effect2_innerShadow_257_13"/>
</filter>
</defs>
</svg>
